<?xml version="1.0" standalone="no"?>
<!DOCTYPE svg PUBLIC "-//W3C//DTD SVG 20010904//EN"
 "http://www.w3.org/TR/2001/REC-SVG-20010904/DTD/svg10.dtd">
<svg version="1.0" xmlns="http://www.w3.org/2000/svg"
 width="511.000000pt" height="195.000000pt" viewBox="0 0 511.000000 195.000000"
 preserveAspectRatio="xMidYMid meet">

<g transform="translate(0.000000,195.000000) scale(0.100000,-0.100000)"
fill="#000000" stroke="none">
<path d="M2154 1379 c-3 -6 16 -33 44 -59 57 -55 57 -53 73 -205 6 -60 22
-168 35 -239 14 -73 20 -134 16 -138 -16 -16 -193 -47 -325 -58 -71 -5 -133
-12 -138 -16 -33 -20 19 -67 99 -90 54 -16 56 -16 121 10 36 15 100 33 141 40
l75 13 7 -26 c17 -67 48 -229 48 -249 0 -37 16 -25 40 31 18 39 25 81 31 172
9 128 7 135 -42 160 l-27 15 20 52 c28 74 33 162 18 350 -10 141 -15 166 -33
185 -40 44 -185 81 -203 52z"/>
<path d="M1064 1285 c-4 -10 9 -29 38 -55 25 -22 50 -52 56 -67 6 -15 18 -118
27 -228 21 -270 33 -372 57 -489 13 -64 18 -114 13 -142 -4 -26 -2 -44 3 -44
28 0 72 197 72 319 0 82 -37 592 -45 628 -3 15 -28 33 -76 57 -76 38 -136 47
-145 21z"/>
<path d="M1869 1254 c-11 -13 -9 -22 11 -59 l23 -42 -37 -69 c-72 -130 -144
-209 -210 -231 -35 -11 -46 -33 -17 -33 59 0 174 65 263 148 l48 44 68 -66
c89 -85 132 -87 132 -5 0 48 -30 85 -76 93 -41 8 -84 26 -84 36 0 4 11 17 25
30 32 30 32 54 -1 97 -49 64 -117 91 -145 57z"/>
<path d="M4153 1195 c-40 -17 -67 -67 -59 -109 7 -35 41 -71 124 -130 90 -65
104 -106 53 -157 -46 -45 -100 -37 -151 23 -23 27 -27 28 -45 15 -19 -15 -18
-16 21 -55 119 -119 319 -4 235 135 -11 17 -53 56 -95 87 -100 74 -116 106
-76 146 29 29 73 25 112 -9 30 -26 36 -28 52 -15 19 13 19 14 0 35 -41 46
-112 60 -171 34z"/>
<path d="M3216 1173 c-6 -29 -66 -418 -66 -428 0 -3 11 -5 24 -5 22 0 24 5 46
160 13 88 26 160 29 160 3 0 44 -72 90 -160 46 -88 87 -160 91 -160 5 0 45 69
90 153 45 83 86 156 90 161 5 4 11 -11 15 -35 42 -289 39 -274 63 -277 13 -2
22 2 22 10 0 31 -63 434 -69 440 -4 4 -51 -75 -105 -177 -54 -102 -101 -185
-104 -185 -4 0 -51 83 -105 185 -54 102 -100 185 -102 185 -2 0 -6 -12 -9 -27z"/>
<path d="M3870 970 l0 -230 25 0 25 0 0 230 0 230 -25 0 -25 0 0 -230z"/>
<path d="M4510 970 l0 -230 25 0 25 0 0 230 0 230 -25 0 -25 0 0 -230z"/>
<path d="M4740 970 l0 -230 25 0 25 0 0 106 0 106 113 -106 c91 -86 118 -106
142 -105 28 0 22 7 -98 125 -71 69 -127 127 -125 128 2 1 56 48 121 104 113
99 116 102 84 102 -27 0 -50 -15 -129 -85 -53 -47 -99 -85 -102 -85 -3 0 -6
38 -6 85 0 84 0 85 -25 85 l-25 0 0 -230z"/>
<path d="M858 1038 c-21 -11 -67 -25 -103 -31 -76 -13 -81 -27 -25 -65 29 -20
43 -23 80 -17 87 12 84 13 91 -30 4 -22 9 -67 10 -100 l4 -60 -60 -22 c-111
-41 -113 -39 -118 111 -3 85 -4 90 -35 117 -39 35 -100 53 -136 39 -14 -5 -26
-14 -26 -19 0 -5 18 -30 39 -55 34 -39 42 -59 61 -143 29 -134 50 -187 77
-191 16 -2 23 5 32 29 10 29 13 31 46 25 44 -9 188 12 212 29 17 13 17 15 0
47 -14 26 -15 40 -7 68 5 19 10 54 10 78 0 24 5 64 12 89 l11 47 -43 38 c-49
43 -76 47 -132 16z"/>
</g>
</svg>
